%TF.GenerationSoftware,KiCad,Pcbnew,8.0.6*%
%TF.CreationDate,2024-10-20T10:25:28-03:00*%
%TF.ProjectId,keychain-thermometer,6b657963-6861-4696-9e2d-746865726d6f,rev?*%
%TF.SameCoordinates,Original*%
%TF.FileFunction,Copper,L2,Bot*%
%TF.FilePolarity,Positive*%
%FSLAX46Y46*%
G04 Gerber Fmt 4.6, Leading zero omitted, Abs format (unit mm)*
G04 Created by KiCad (PCBNEW 8.0.6) date 2024-10-20 10:25:28*
%MOMM*%
%LPD*%
G01*
G04 APERTURE LIST*
%TA.AperFunction,ComponentPad*%
%ADD10R,1.700000X1.700000*%
%TD*%
%TA.AperFunction,ComponentPad*%
%ADD11O,1.700000X1.700000*%
%TD*%
%TA.AperFunction,ComponentPad*%
%ADD12R,1.600000X2.000000*%
%TD*%
%TA.AperFunction,ComponentPad*%
%ADD13O,1.600000X2.000000*%
%TD*%
%TA.AperFunction,ViaPad*%
%ADD14C,0.600000*%
%TD*%
%TA.AperFunction,Conductor*%
%ADD15C,0.500000*%
%TD*%
G04 APERTURE END LIST*
D10*
%TO.P,J1,1,Pin_1*%
%TO.N,VCC*%
X68850000Y-69100000D03*
D11*
%TO.P,J1,2,Pin_2*%
%TO.N,GND*%
X71390000Y-69100000D03*
%TO.P,J1,3,Pin_3*%
%TO.N,PB5-reset*%
X73930000Y-69100000D03*
%TO.P,J1,4,Pin_4*%
%TO.N,A*%
X76470000Y-69100000D03*
%TO.P,J1,5,Pin_5*%
%TO.N,B*%
X79010000Y-69100000D03*
%TO.P,J1,6,Pin_6*%
%TO.N,C*%
X81550000Y-69100000D03*
%TD*%
D12*
%TO.P,BT1,1,+*%
%TO.N,Net-(BT1-+)*%
X85300000Y-54800000D03*
D13*
%TO.P,BT1,2,-*%
%TO.N,GND*%
X64800000Y-54800000D03*
%TD*%
D14*
%TO.N,GND*%
X82400000Y-54700000D03*
X70000000Y-56700000D03*
X67600000Y-53900000D03*
%TO.N,Net-(D1-A)*%
X78100000Y-61800000D03*
X82000000Y-65300000D03*
%TO.N,B*%
X79700000Y-58900000D03*
%TO.N,PB5-reset*%
X73900000Y-53000000D03*
%TO.N,A*%
X76900000Y-58900000D03*
%TD*%
D15*
%TO.N,Net-(D1-A)*%
X78100000Y-61800000D02*
X80600000Y-61800000D01*
X80600000Y-61800000D02*
X82000000Y-63200000D01*
X82000000Y-63200000D02*
X82000000Y-65300000D01*
%TO.N,B*%
X77350000Y-61250000D02*
X77350000Y-67440000D01*
X79700000Y-58900000D02*
X77350000Y-61250000D01*
X77350000Y-67440000D02*
X79010000Y-69100000D01*
%TO.N,PB5-reset*%
X73930000Y-53030000D02*
X73900000Y-53000000D01*
X73930000Y-69100000D02*
X73930000Y-53030000D01*
%TO.N,A*%
X76470000Y-59330000D02*
X76470000Y-69100000D01*
X76900000Y-58900000D02*
X76470000Y-59330000D01*
%TD*%
%TA.AperFunction,Conductor*%
%TO.N,GND*%
G36*
X86342539Y-44720185D02*
G01*
X86388294Y-44772989D01*
X86399500Y-44824500D01*
X86399500Y-53198933D01*
X86379815Y-53265972D01*
X86327011Y-53311727D01*
X86257853Y-53321671D01*
X86232168Y-53315115D01*
X86207485Y-53305909D01*
X86207483Y-53305908D01*
X86147883Y-53299501D01*
X86147881Y-53299500D01*
X86147873Y-53299500D01*
X86147864Y-53299500D01*
X84452129Y-53299500D01*
X84452123Y-53299501D01*
X84392516Y-53305908D01*
X84257671Y-53356202D01*
X84257664Y-53356206D01*
X84142455Y-53442452D01*
X84142452Y-53442455D01*
X84056206Y-53557664D01*
X84056202Y-53557671D01*
X84005908Y-53692517D01*
X83999501Y-53752116D01*
X83999500Y-53752135D01*
X83999500Y-55847870D01*
X83999501Y-55847876D01*
X84005908Y-55907483D01*
X84056202Y-56042328D01*
X84056206Y-56042335D01*
X84142452Y-56157544D01*
X84142455Y-56157547D01*
X84257664Y-56243793D01*
X84257671Y-56243797D01*
X84392517Y-56294091D01*
X84392516Y-56294091D01*
X84399444Y-56294835D01*
X84452127Y-56300500D01*
X86147872Y-56300499D01*
X86207483Y-56294091D01*
X86232165Y-56284884D01*
X86301856Y-56279899D01*
X86363180Y-56313384D01*
X86396666Y-56374706D01*
X86399500Y-56401066D01*
X86399500Y-70975500D01*
X86379815Y-71042539D01*
X86327011Y-71088294D01*
X86275500Y-71099500D01*
X64024500Y-71099500D01*
X63957461Y-71079815D01*
X63911706Y-71027011D01*
X63900500Y-70975500D01*
X63900500Y-68202135D01*
X67499500Y-68202135D01*
X67499500Y-69997870D01*
X67499501Y-69997876D01*
X67505908Y-70057483D01*
X67556202Y-70192328D01*
X67556206Y-70192335D01*
X67642452Y-70307544D01*
X67642455Y-70307547D01*
X67757664Y-70393793D01*
X67757671Y-70393797D01*
X67892517Y-70444091D01*
X67892516Y-70444091D01*
X67899444Y-70444835D01*
X67952127Y-70450500D01*
X69747872Y-70450499D01*
X69807483Y-70444091D01*
X69942331Y-70393796D01*
X70057546Y-70307546D01*
X70143796Y-70192331D01*
X70193002Y-70060401D01*
X70234872Y-70004468D01*
X70300337Y-69980050D01*
X70368610Y-69994901D01*
X70396865Y-70016053D01*
X70518917Y-70138105D01*
X70712421Y-70273600D01*
X70926507Y-70373429D01*
X70926516Y-70373433D01*
X71140000Y-70430634D01*
X71140000Y-69533012D01*
X71197007Y-69565925D01*
X71324174Y-69600000D01*
X71455826Y-69600000D01*
X71582993Y-69565925D01*
X71640000Y-69533012D01*
X71640000Y-70430633D01*
X71853483Y-70373433D01*
X71853492Y-70373429D01*
X72067578Y-70273600D01*
X72261082Y-70138105D01*
X72428105Y-69971082D01*
X72558119Y-69785405D01*
X72612696Y-69741781D01*
X72682195Y-69734588D01*
X72744549Y-69766110D01*
X72761269Y-69785405D01*
X72891505Y-69971401D01*
X73058599Y-70138495D01*
X73155384Y-70206265D01*
X73252165Y-70274032D01*
X73252167Y-70274033D01*
X73252170Y-70274035D01*
X73466337Y-70373903D01*
X73694592Y-70435063D01*
X73871034Y-70450500D01*
X73929999Y-70455659D01*
X73930000Y-70455659D01*
X73930001Y-70455659D01*
X73988966Y-70450500D01*
X74165408Y-70435063D01*
X74393663Y-70373903D01*
X74607830Y-70274035D01*
X74801401Y-70138495D01*
X74968495Y-69971401D01*
X75098425Y-69785842D01*
X75153002Y-69742217D01*
X75222500Y-69735023D01*
X75284855Y-69766546D01*
X75301575Y-69785842D01*
X75431500Y-69971395D01*
X75431505Y-69971401D01*
X75598599Y-70138495D01*
X75695384Y-70206265D01*
X75792165Y-70274032D01*
X75792167Y-70274033D01*
X75792170Y-70274035D01*
X76006337Y-70373903D01*
X76234592Y-70435063D01*
X76411034Y-70450500D01*
X76469999Y-70455659D01*
X76470000Y-70455659D01*
X76470001Y-70455659D01*
X76528966Y-70450500D01*
X76705408Y-70435063D01*
X76933663Y-70373903D01*
X77147830Y-70274035D01*
X77341401Y-70138495D01*
X77508495Y-69971401D01*
X77638425Y-69785842D01*
X77693002Y-69742217D01*
X77762500Y-69735023D01*
X77824855Y-69766546D01*
X77841575Y-69785842D01*
X77971500Y-69971395D01*
X77971505Y-69971401D01*
X78138599Y-70138495D01*
X78235384Y-70206265D01*
X78332165Y-70274032D01*
X78332167Y-70274033D01*
X78332170Y-70274035D01*
X78546337Y-70373903D01*
X78774592Y-70435063D01*
X78951034Y-70450500D01*
X79009999Y-70455659D01*
X79010000Y-70455659D01*
X79010001Y-70455659D01*
X79068966Y-70450500D01*
X79245408Y-70435063D01*
X79473663Y-70373903D01*
X79687830Y-70274035D01*
X79881401Y-70138495D01*
X80048495Y-69971401D01*
X80178425Y-69785842D01*
X80233002Y-69742217D01*
X80302500Y-69735023D01*
X80364855Y-69766546D01*
X80381575Y-69785842D01*
X80511500Y-69971395D01*
X80511505Y-69971401D01*
X80678599Y-70138495D01*
X80775384Y-70206265D01*
X80872165Y-70274032D01*
X80872167Y-70274033D01*
X80872170Y-70274035D01*
X81086337Y-70373903D01*
X81314592Y-70435063D01*
X81491034Y-70450500D01*
X81549999Y-70455659D01*
X81550000Y-70455659D01*
X81550001Y-70455659D01*
X81608966Y-70450500D01*
X81785408Y-70435063D01*
X82013663Y-70373903D01*
X82227830Y-70274035D01*
X82421401Y-70138495D01*
X82588495Y-69971401D01*
X82724035Y-69777830D01*
X82823903Y-69563663D01*
X82885063Y-69335408D01*
X82905659Y-69100000D01*
X82885063Y-68864592D01*
X82823903Y-68636337D01*
X82724035Y-68422171D01*
X82718731Y-68414595D01*
X82588494Y-68228597D01*
X82421402Y-68061506D01*
X82421395Y-68061501D01*
X82227834Y-67925967D01*
X82227830Y-67925965D01*
X82198521Y-67912298D01*
X82013663Y-67826097D01*
X82013659Y-67826096D01*
X82013655Y-67826094D01*
X81785413Y-67764938D01*
X81785403Y-67764936D01*
X81550001Y-67744341D01*
X81549999Y-67744341D01*
X81314596Y-67764936D01*
X81314586Y-67764938D01*
X81086344Y-67826094D01*
X81086335Y-67826098D01*
X80872171Y-67925964D01*
X80872169Y-67925965D01*
X80678597Y-68061505D01*
X80511505Y-68228597D01*
X80381575Y-68414158D01*
X80326998Y-68457783D01*
X80257500Y-68464977D01*
X80195145Y-68433454D01*
X80178425Y-68414158D01*
X80048494Y-68228597D01*
X79881402Y-68061506D01*
X79881395Y-68061501D01*
X79687834Y-67925967D01*
X79687830Y-67925965D01*
X79658521Y-67912298D01*
X79473663Y-67826097D01*
X79473659Y-67826096D01*
X79473655Y-67826094D01*
X79245413Y-67764938D01*
X79245403Y-67764936D01*
X79010001Y-67744341D01*
X79009998Y-67744341D01*
X78796985Y-67762977D01*
X78728485Y-67749210D01*
X78698497Y-67727130D01*
X78136819Y-67165451D01*
X78103334Y-67104128D01*
X78100500Y-67077770D01*
X78100500Y-62716321D01*
X78120185Y-62649282D01*
X78172989Y-62603527D01*
X78210612Y-62593101D01*
X78279255Y-62585368D01*
X78359017Y-62557457D01*
X78399972Y-62550500D01*
X80237770Y-62550500D01*
X80304809Y-62570185D01*
X80325451Y-62586819D01*
X81213181Y-63474549D01*
X81246666Y-63535872D01*
X81249500Y-63562230D01*
X81249500Y-65000028D01*
X81242542Y-65040982D01*
X81214631Y-65120747D01*
X81194435Y-65299996D01*
X81194435Y-65300003D01*
X81214630Y-65479249D01*
X81214631Y-65479254D01*
X81274211Y-65649523D01*
X81370184Y-65802262D01*
X81497738Y-65929816D01*
X81650478Y-66025789D01*
X81820745Y-66085368D01*
X81820750Y-66085369D01*
X81999996Y-66105565D01*
X82000000Y-66105565D01*
X82000004Y-66105565D01*
X82179249Y-66085369D01*
X82179252Y-66085368D01*
X82179255Y-66085368D01*
X82349522Y-66025789D01*
X82502262Y-65929816D01*
X82629816Y-65802262D01*
X82725789Y-65649522D01*
X82785368Y-65479255D01*
X82805565Y-65300000D01*
X82785368Y-65120745D01*
X82757458Y-65040982D01*
X82750500Y-65000028D01*
X82750500Y-63126079D01*
X82721659Y-62981092D01*
X82721658Y-62981091D01*
X82721658Y-62981087D01*
X82665084Y-62844505D01*
X82632186Y-62795270D01*
X82632185Y-62795268D01*
X82582956Y-62721589D01*
X82582952Y-62721584D01*
X81078421Y-61217052D01*
X81078414Y-61217046D01*
X81004729Y-61167812D01*
X81004729Y-61167813D01*
X80955491Y-61134913D01*
X80818917Y-61078343D01*
X80818907Y-61078340D01*
X80673920Y-61049500D01*
X80673918Y-61049500D01*
X78911230Y-61049500D01*
X78844191Y-61029815D01*
X78798436Y-60977011D01*
X78788492Y-60907853D01*
X78817517Y-60844297D01*
X78823549Y-60837819D01*
X79694976Y-59966391D01*
X80008061Y-59653305D01*
X80044134Y-59630655D01*
X80043246Y-59628811D01*
X80049518Y-59625790D01*
X80049522Y-59625789D01*
X80202262Y-59529816D01*
X80329816Y-59402262D01*
X80425789Y-59249522D01*
X80485368Y-59079255D01*
X80497170Y-58974508D01*
X80505565Y-58900003D01*
X80505565Y-58899996D01*
X80485369Y-58720750D01*
X80485368Y-58720745D01*
X80440296Y-58591937D01*
X80425789Y-58550478D01*
X80329816Y-58397738D01*
X80202262Y-58270184D01*
X80049523Y-58174211D01*
X79879254Y-58114631D01*
X79879249Y-58114630D01*
X79700004Y-58094435D01*
X79699996Y-58094435D01*
X79520750Y-58114630D01*
X79520745Y-58114631D01*
X79350476Y-58174211D01*
X79197737Y-58270184D01*
X79070184Y-58397737D01*
X78974211Y-58550478D01*
X78971188Y-58556756D01*
X78969362Y-58555876D01*
X78946693Y-58591937D01*
X77432181Y-60106450D01*
X77370858Y-60139935D01*
X77301166Y-60134951D01*
X77245233Y-60093079D01*
X77220816Y-60027615D01*
X77220500Y-60018769D01*
X77220500Y-59712556D01*
X77240185Y-59645517D01*
X77278527Y-59607563D01*
X77402262Y-59529816D01*
X77529816Y-59402262D01*
X77625789Y-59249522D01*
X77685368Y-59079255D01*
X77697170Y-58974508D01*
X77705565Y-58900003D01*
X77705565Y-58899996D01*
X77685369Y-58720750D01*
X77685368Y-58720745D01*
X77640296Y-58591937D01*
X77625789Y-58550478D01*
X77529816Y-58397738D01*
X77402262Y-58270184D01*
X77249523Y-58174211D01*
X77079254Y-58114631D01*
X77079249Y-58114630D01*
X76900004Y-58094435D01*
X76899996Y-58094435D01*
X76720750Y-58114630D01*
X76720745Y-58114631D01*
X76550476Y-58174211D01*
X76397737Y-58270184D01*
X76270184Y-58397737D01*
X76174211Y-58550478D01*
X76171188Y-58556756D01*
X76169362Y-58555876D01*
X76146693Y-58591937D01*
X75887049Y-58851581D01*
X75837812Y-58925271D01*
X75804921Y-58974496D01*
X75804914Y-58974508D01*
X75748342Y-59111086D01*
X75748340Y-59111092D01*
X75719500Y-59256079D01*
X75719500Y-67912298D01*
X75699815Y-67979337D01*
X75666625Y-68013872D01*
X75598595Y-68061507D01*
X75431505Y-68228597D01*
X75301575Y-68414158D01*
X75246998Y-68457783D01*
X75177500Y-68464977D01*
X75115145Y-68433454D01*
X75098425Y-68414158D01*
X74968494Y-68228597D01*
X74801404Y-68061507D01*
X74733375Y-68013872D01*
X74689751Y-67959294D01*
X74680500Y-67912298D01*
X74680500Y-53214236D01*
X74685237Y-53186366D01*
X74683819Y-53186043D01*
X74685369Y-53179252D01*
X74705565Y-53000003D01*
X74705565Y-52999996D01*
X74685369Y-52820750D01*
X74685368Y-52820745D01*
X74625788Y-52650476D01*
X74529815Y-52497737D01*
X74402262Y-52370184D01*
X74249523Y-52274211D01*
X74079254Y-52214631D01*
X74079249Y-52214630D01*
X73900004Y-52194435D01*
X73899996Y-52194435D01*
X73720750Y-52214630D01*
X73720745Y-52214631D01*
X73550476Y-52274211D01*
X73397737Y-52370184D01*
X73270184Y-52497737D01*
X73174211Y-52650476D01*
X73114631Y-52820745D01*
X73114630Y-52820750D01*
X73094435Y-52999996D01*
X73094435Y-53000003D01*
X73114630Y-53179249D01*
X73114633Y-53179262D01*
X73172541Y-53344749D01*
X73179500Y-53385704D01*
X73179500Y-67912298D01*
X73159815Y-67979337D01*
X73126625Y-68013872D01*
X73058595Y-68061507D01*
X72891508Y-68228594D01*
X72761269Y-68414595D01*
X72706692Y-68458219D01*
X72637193Y-68465412D01*
X72574839Y-68433890D01*
X72558119Y-68414594D01*
X72428113Y-68228926D01*
X72428108Y-68228920D01*
X72261082Y-68061894D01*
X72067578Y-67926399D01*
X71853492Y-67826570D01*
X71853486Y-67826567D01*
X71640000Y-67769364D01*
X71640000Y-68666988D01*
X71582993Y-68634075D01*
X71455826Y-68600000D01*
X71324174Y-68600000D01*
X71197007Y-68634075D01*
X71140000Y-68666988D01*
X71140000Y-67769364D01*
X71139999Y-67769364D01*
X70926513Y-67826567D01*
X70926507Y-67826570D01*
X70712422Y-67926399D01*
X70712420Y-67926400D01*
X70518926Y-68061886D01*
X70396865Y-68183947D01*
X70335542Y-68217431D01*
X70265850Y-68212447D01*
X70209917Y-68170575D01*
X70193002Y-68139598D01*
X70143797Y-68007671D01*
X70143793Y-68007664D01*
X70057547Y-67892455D01*
X70057544Y-67892452D01*
X69942335Y-67806206D01*
X69942328Y-67806202D01*
X69807482Y-67755908D01*
X69807483Y-67755908D01*
X69747883Y-67749501D01*
X69747881Y-67749500D01*
X69747873Y-67749500D01*
X69747864Y-67749500D01*
X67952129Y-67749500D01*
X67952123Y-67749501D01*
X67892516Y-67755908D01*
X67757671Y-67806202D01*
X67757664Y-67806206D01*
X67642455Y-67892452D01*
X67642452Y-67892455D01*
X67556206Y-68007664D01*
X67556202Y-68007671D01*
X67505908Y-68142517D01*
X67499501Y-68202116D01*
X67499500Y-68202135D01*
X63900500Y-68202135D01*
X63900500Y-58734108D01*
X65499500Y-58734108D01*
X65499500Y-59565891D01*
X65533608Y-59693187D01*
X65544791Y-59712556D01*
X65599500Y-59807314D01*
X65692686Y-59900500D01*
X65806814Y-59966392D01*
X65934108Y-60000500D01*
X66065892Y-60000500D01*
X67075500Y-60000500D01*
X67142539Y-60020185D01*
X67188294Y-60072989D01*
X67199500Y-60124500D01*
X67199500Y-60675500D01*
X67179815Y-60742539D01*
X67127011Y-60788294D01*
X67075500Y-60799500D01*
X65934108Y-60799500D01*
X65806812Y-60833608D01*
X65692686Y-60899500D01*
X65692683Y-60899502D01*
X65599502Y-60992683D01*
X65599500Y-60992686D01*
X65533608Y-61106812D01*
X65499500Y-61234108D01*
X65499500Y-62065891D01*
X65533608Y-62193187D01*
X65566554Y-62250250D01*
X65599500Y-62307314D01*
X65692686Y-62400500D01*
X65806814Y-62466392D01*
X65934108Y-62500500D01*
X65934110Y-62500500D01*
X69965890Y-62500500D01*
X69965892Y-62500500D01*
X70093186Y-62466392D01*
X70207314Y-62400500D01*
X70300500Y-62307314D01*
X70366392Y-62193186D01*
X70400500Y-62065892D01*
X70400500Y-61234108D01*
X70366392Y-61106814D01*
X70300500Y-60992686D01*
X70207314Y-60899500D01*
X70150250Y-60866554D01*
X70093187Y-60833608D01*
X70029539Y-60816554D01*
X69965892Y-60799500D01*
X69965891Y-60799500D01*
X68924500Y-60799500D01*
X68857461Y-60779815D01*
X68811706Y-60727011D01*
X68800500Y-60675500D01*
X68800500Y-60124500D01*
X68820185Y-60057461D01*
X68872989Y-60011706D01*
X68924500Y-60000500D01*
X70065890Y-60000500D01*
X70065892Y-60000500D01*
X70193186Y-59966392D01*
X70307314Y-59900500D01*
X70400500Y-59807314D01*
X70466392Y-59693186D01*
X70500500Y-59565892D01*
X70500500Y-58734108D01*
X70466392Y-58606814D01*
X70400500Y-58492686D01*
X70307314Y-58399500D01*
X70250250Y-58366554D01*
X70193187Y-58333608D01*
X70129539Y-58316554D01*
X70065892Y-58299500D01*
X66065892Y-58299500D01*
X65934108Y-58299500D01*
X65806812Y-58333608D01*
X65692686Y-58399500D01*
X65692683Y-58399502D01*
X65599502Y-58492683D01*
X65599500Y-58492686D01*
X65533608Y-58606812D01*
X65499500Y-58734108D01*
X63900500Y-58734108D01*
X63900500Y-56196727D01*
X63920185Y-56129688D01*
X63972989Y-56083933D01*
X64042147Y-56073989D01*
X64097388Y-56096411D01*
X64118648Y-56111858D01*
X64300968Y-56204754D01*
X64495578Y-56267988D01*
X64550000Y-56276607D01*
X64550000Y-55146409D01*
X64635956Y-55196037D01*
X64744048Y-55225000D01*
X64855952Y-55225000D01*
X64964044Y-55196037D01*
X65050000Y-55146409D01*
X65050000Y-56276606D01*
X65104421Y-56267988D01*
X65299031Y-56204754D01*
X65481349Y-56111859D01*
X65646894Y-55991582D01*
X65646895Y-55991582D01*
X65791582Y-55846895D01*
X65791582Y-55846894D01*
X65911859Y-55681349D01*
X66004755Y-55499031D01*
X66067990Y-55304417D01*
X66100000Y-55102317D01*
X66100000Y-55050000D01*
X65146410Y-55050000D01*
X65196037Y-54964044D01*
X65225000Y-54855952D01*
X65225000Y-54744048D01*
X65196037Y-54635956D01*
X65146410Y-54550000D01*
X66100000Y-54550000D01*
X66100000Y-54497682D01*
X66067990Y-54295582D01*
X66004755Y-54100968D01*
X65911859Y-53918650D01*
X65791582Y-53753105D01*
X65791582Y-53753104D01*
X65646895Y-53608417D01*
X65481349Y-53488140D01*
X65299029Y-53395244D01*
X65104413Y-53332009D01*
X65050000Y-53323390D01*
X65050000Y-54453590D01*
X64964044Y-54403963D01*
X64855952Y-54375000D01*
X64744048Y-54375000D01*
X64635956Y-54403963D01*
X64550000Y-54453590D01*
X64550000Y-53323390D01*
X64495586Y-53332009D01*
X64300970Y-53395244D01*
X64118647Y-53488142D01*
X64097385Y-53503590D01*
X64031579Y-53527070D01*
X63963525Y-53511245D01*
X63914830Y-53461139D01*
X63900500Y-53403272D01*
X63900500Y-47407109D01*
X63920185Y-47340070D01*
X63972989Y-47294315D01*
X64042147Y-47284371D01*
X64105703Y-47313396D01*
X64123761Y-47332791D01*
X64190219Y-47421569D01*
X64190226Y-47421578D01*
X64190234Y-47421587D01*
X64378412Y-47609765D01*
X64378430Y-47609781D01*
X64591486Y-47769272D01*
X64591494Y-47769277D01*
X64825079Y-47896825D01*
X64825083Y-47896827D01*
X64825085Y-47896828D01*
X65074456Y-47989838D01*
X65204491Y-48018125D01*
X65334520Y-48046412D01*
X65334522Y-48046412D01*
X65334526Y-48046413D01*
X65570441Y-48063285D01*
X65599999Y-48065400D01*
X65600000Y-48065400D01*
X65600001Y-48065400D01*
X65626596Y-48063497D01*
X65865474Y-48046413D01*
X66125544Y-47989838D01*
X66374915Y-47896828D01*
X66608511Y-47769274D01*
X66821577Y-47609775D01*
X67009775Y-47421577D01*
X67169274Y-47208511D01*
X67296828Y-46974915D01*
X67389838Y-46725544D01*
X67446413Y-46465474D01*
X67465400Y-46200000D01*
X67446413Y-45934526D01*
X67389838Y-45674456D01*
X67296828Y-45425085D01*
X67169274Y-45191489D01*
X67169272Y-45191486D01*
X67009781Y-44978430D01*
X67009765Y-44978412D01*
X66943534Y-44912181D01*
X66910049Y-44850858D01*
X66915033Y-44781166D01*
X66956905Y-44725233D01*
X67022369Y-44700816D01*
X67031215Y-44700500D01*
X86275500Y-44700500D01*
X86342539Y-44720185D01*
G37*
%TD.AperFunction*%
%TD*%
M02*
