%TF.GenerationSoftware,KiCad,Pcbnew,8.0.6*%
%TF.CreationDate,2024-11-27T13:53:32-03:00*%
%TF.ProjectId,keychain-thermometer,6b657963-6861-4696-9e2d-746865726d6f,rev?*%
%TF.SameCoordinates,Original*%
%TF.FileFunction,Legend,Bot*%
%TF.FilePolarity,Positive*%
%FSLAX46Y46*%
G04 Gerber Fmt 4.6, Leading zero omitted, Abs format (unit mm)*
G04 Created by KiCad (PCBNEW 8.0.6) date 2024-11-27 13:53:32*
%MOMM*%
%LPD*%
G01*
G04 APERTURE LIST*
%ADD10C,0.150000*%
%ADD11C,0.120000*%
G04 APERTURE END LIST*
D10*
G36*
X79584473Y-48330000D02*
G01*
X79584473Y-47313949D01*
X78905233Y-47313949D01*
X78905233Y-47431186D01*
X79451360Y-47431186D01*
X79451360Y-47751632D01*
X78978750Y-47751632D01*
X78978750Y-47868869D01*
X79451360Y-47868869D01*
X79451360Y-48330000D01*
X79584473Y-48330000D01*
G37*
G36*
X78753803Y-48330000D02*
G01*
X78753803Y-47595317D01*
X78642428Y-47595317D01*
X78642428Y-47707913D01*
X78616511Y-47664135D01*
X78584743Y-47622843D01*
X78564026Y-47604598D01*
X78518517Y-47583797D01*
X78484403Y-47579685D01*
X78433278Y-47586296D01*
X78385513Y-47604134D01*
X78357397Y-47619741D01*
X78399895Y-47735268D01*
X78445324Y-47715301D01*
X78490753Y-47708646D01*
X78540391Y-47719270D01*
X78563538Y-47733314D01*
X78596587Y-47771286D01*
X78609455Y-47801214D01*
X78622106Y-47852608D01*
X78628574Y-47902797D01*
X78630216Y-47946050D01*
X78630216Y-48330000D01*
X78753803Y-48330000D01*
G37*
G36*
X78285589Y-47454633D02*
G01*
X78285589Y-47313949D01*
X78162002Y-47313949D01*
X78162002Y-47454633D01*
X78285589Y-47454633D01*
G37*
G36*
X78285589Y-48330000D02*
G01*
X78285589Y-47595317D01*
X78162002Y-47595317D01*
X78162002Y-48330000D01*
X78285589Y-48330000D01*
G37*
G36*
X77705757Y-48216671D02*
G01*
X77687927Y-48330000D01*
X77737386Y-48341723D01*
X77781228Y-48345631D01*
X77831001Y-48342084D01*
X77878537Y-48327979D01*
X77885764Y-48324138D01*
X77923583Y-48291718D01*
X77938032Y-48267229D01*
X77948726Y-48217137D01*
X77952217Y-48164720D01*
X77952930Y-48118974D01*
X77952930Y-47693014D01*
X78043789Y-47693014D01*
X78043789Y-47595317D01*
X77952930Y-47595317D01*
X77952930Y-47417997D01*
X77830076Y-47345212D01*
X77830076Y-47595317D01*
X77705757Y-47595317D01*
X77705757Y-47693014D01*
X77830076Y-47693014D01*
X77830076Y-48128988D01*
X77827838Y-48179685D01*
X77823726Y-48198597D01*
X77802477Y-48223265D01*
X77759979Y-48232302D01*
X77711961Y-48219464D01*
X77705757Y-48216671D01*
G37*
G36*
X77652023Y-48330000D02*
G01*
X77652023Y-48230593D01*
X77187718Y-47692770D01*
X77239900Y-47695134D01*
X77291758Y-47696594D01*
X77327180Y-47696922D01*
X77624668Y-47696922D01*
X77624668Y-47595317D01*
X77028471Y-47595317D01*
X77028471Y-47677138D01*
X77423412Y-48145108D01*
X77499616Y-48230593D01*
X77448716Y-48227373D01*
X77399820Y-48225345D01*
X77348348Y-48224493D01*
X77343789Y-48224487D01*
X77006489Y-48224487D01*
X77006489Y-48330000D01*
X77652023Y-48330000D01*
G37*
G36*
X76606535Y-47580084D02*
G01*
X76659924Y-47586066D01*
X76709346Y-47599227D01*
X76754801Y-47619566D01*
X76796289Y-47647083D01*
X76833810Y-47681779D01*
X76861111Y-47715705D01*
X76887764Y-47761752D01*
X76907753Y-47813621D01*
X76919321Y-47861293D01*
X76926262Y-47913007D01*
X76928576Y-47968764D01*
X76927752Y-48001587D01*
X76922714Y-48053181D01*
X76910624Y-48109962D01*
X76891939Y-48161144D01*
X76866660Y-48206727D01*
X76834787Y-48246713D01*
X76822804Y-48258691D01*
X76783755Y-48289989D01*
X76740052Y-48314333D01*
X76691695Y-48331721D01*
X76638684Y-48342153D01*
X76581018Y-48345631D01*
X76565319Y-48345391D01*
X76513152Y-48340762D01*
X76465308Y-48330244D01*
X76415925Y-48311010D01*
X76372191Y-48284082D01*
X76367127Y-48280186D01*
X76330243Y-48245519D01*
X76299800Y-48204624D01*
X76275799Y-48157500D01*
X76260083Y-48111158D01*
X76388066Y-48095526D01*
X76401313Y-48127485D01*
X76428482Y-48172862D01*
X76464270Y-48208611D01*
X76479789Y-48218813D01*
X76528382Y-48238181D01*
X76580286Y-48244026D01*
X76591587Y-48243783D01*
X76644571Y-48235268D01*
X76691688Y-48214588D01*
X76732937Y-48181744D01*
X76760079Y-48147046D01*
X76782512Y-48099800D01*
X76795250Y-48050505D01*
X76800837Y-48001737D01*
X76256664Y-48001737D01*
X76256175Y-47968032D01*
X76257626Y-47923163D01*
X76260213Y-47900132D01*
X76386601Y-47900132D01*
X76793998Y-47900132D01*
X76792354Y-47881800D01*
X76781988Y-47831027D01*
X76760908Y-47782044D01*
X76729762Y-47740886D01*
X76726103Y-47737219D01*
X76686594Y-47706956D01*
X76637020Y-47687110D01*
X76586392Y-47681290D01*
X76563429Y-47682458D01*
X76515754Y-47693625D01*
X76469262Y-47719900D01*
X76433251Y-47756029D01*
X76408716Y-47798733D01*
X76393649Y-47849827D01*
X76386601Y-47900132D01*
X76260213Y-47900132D01*
X76263517Y-47870717D01*
X76273940Y-47822313D01*
X76292430Y-47769565D01*
X76317446Y-47722639D01*
X76348988Y-47681535D01*
X76385590Y-47646922D01*
X76433067Y-47615591D01*
X76485687Y-47594008D01*
X76534883Y-47583266D01*
X76587857Y-47579685D01*
X76606535Y-47580084D01*
G37*
G36*
X76108653Y-48330000D02*
G01*
X76108653Y-47595317D01*
X75997522Y-47595317D01*
X75997522Y-47698387D01*
X75964873Y-47658047D01*
X75927192Y-47626053D01*
X75876871Y-47599276D01*
X75828287Y-47585366D01*
X75774672Y-47579801D01*
X75765247Y-47579685D01*
X75713440Y-47583636D01*
X75665180Y-47595487D01*
X75644103Y-47603621D01*
X75600966Y-47627250D01*
X75564834Y-47661352D01*
X75561304Y-47666147D01*
X75536667Y-47711286D01*
X75522714Y-47757983D01*
X75517378Y-47809256D01*
X75515935Y-47863129D01*
X75515875Y-47878883D01*
X75515875Y-48330000D01*
X75639462Y-48330000D01*
X75639462Y-47882058D01*
X75641489Y-47830332D01*
X75649721Y-47780937D01*
X75653872Y-47768241D01*
X75680663Y-47726930D01*
X75705163Y-47707913D01*
X75750475Y-47689546D01*
X75791381Y-47685198D01*
X75843079Y-47691173D01*
X75889697Y-47709095D01*
X75927669Y-47735757D01*
X75957937Y-47776252D01*
X75975593Y-47827912D01*
X75983048Y-47878056D01*
X75985066Y-47927976D01*
X75985066Y-48330000D01*
X76108653Y-48330000D01*
G37*
G36*
X75319748Y-48330000D02*
G01*
X75319748Y-47313949D01*
X75186392Y-47313949D01*
X75186392Y-48212763D01*
X74690579Y-48212763D01*
X74690579Y-48330000D01*
X75319748Y-48330000D01*
G37*
G36*
X74254578Y-47579784D02*
G01*
X74305013Y-47582658D01*
X74356839Y-47590520D01*
X74408722Y-47604842D01*
X74438323Y-47616770D01*
X74481617Y-47642004D01*
X74517899Y-47676161D01*
X74537395Y-47704427D01*
X74558221Y-47749266D01*
X74572121Y-47797550D01*
X74451221Y-47814159D01*
X74445878Y-47796298D01*
X74423875Y-47747952D01*
X74389672Y-47710600D01*
X74359260Y-47695144D01*
X74310992Y-47684153D01*
X74260956Y-47681290D01*
X74211988Y-47684594D01*
X74162056Y-47697605D01*
X74120027Y-47723056D01*
X74109966Y-47733752D01*
X74090012Y-47778793D01*
X74085101Y-47828813D01*
X74085589Y-47861053D01*
X74094751Y-47864141D01*
X74143607Y-47877373D01*
X74197512Y-47888226D01*
X74252769Y-47897022D01*
X74306140Y-47904040D01*
X74315185Y-47905172D01*
X74366905Y-47912673D01*
X74416050Y-47922847D01*
X74460332Y-47938796D01*
X74505198Y-47963879D01*
X74540797Y-47995265D01*
X74568946Y-48035687D01*
X74570448Y-48038490D01*
X74588003Y-48085865D01*
X74593370Y-48134605D01*
X74593118Y-48146017D01*
X74584303Y-48199211D01*
X74562893Y-48245966D01*
X74528890Y-48286280D01*
X74493063Y-48312246D01*
X74444473Y-48332590D01*
X74393918Y-48342791D01*
X74343998Y-48345631D01*
X74308186Y-48344105D01*
X74256643Y-48336090D01*
X74207711Y-48321207D01*
X74199723Y-48318018D01*
X74155110Y-48295638D01*
X74113550Y-48268180D01*
X74075331Y-48237676D01*
X74067965Y-48281313D01*
X74050662Y-48330000D01*
X73921458Y-48330000D01*
X73940059Y-48289581D01*
X73952965Y-48241828D01*
X73954797Y-48228356D01*
X73958308Y-48177247D01*
X73959858Y-48126653D01*
X73960590Y-48073576D01*
X73960781Y-48022498D01*
X73960781Y-48004668D01*
X74085589Y-48004668D01*
X74086078Y-48029553D01*
X74091242Y-48081199D01*
X74105617Y-48129720D01*
X74114505Y-48146327D01*
X74147070Y-48186799D01*
X74187438Y-48216427D01*
X74212466Y-48228703D01*
X74263039Y-48243503D01*
X74314445Y-48247934D01*
X74331920Y-48247411D01*
X74381280Y-48238490D01*
X74424110Y-48214473D01*
X74450932Y-48179400D01*
X74461479Y-48130697D01*
X74460878Y-48118547D01*
X74444382Y-48070858D01*
X74436117Y-48059723D01*
X74395533Y-48030069D01*
X74386901Y-48026631D01*
X74338480Y-48013716D01*
X74287578Y-48004912D01*
X74231914Y-47996192D01*
X74182679Y-47986700D01*
X74134280Y-47974908D01*
X74085589Y-47958750D01*
X74085589Y-48004668D01*
X73960781Y-48004668D01*
X73960781Y-47856657D01*
X73960805Y-47846506D01*
X73961950Y-47793979D01*
X73966887Y-47742107D01*
X73979683Y-47700640D01*
X74005478Y-47657355D01*
X74007218Y-47655275D01*
X74046067Y-47623343D01*
X74091207Y-47601912D01*
X74094889Y-47600544D01*
X74144400Y-47587521D01*
X74193163Y-47581444D01*
X74242882Y-47579685D01*
X74254578Y-47579784D01*
G37*
G36*
X73773447Y-48330000D02*
G01*
X73658653Y-48330000D01*
X73658653Y-48237920D01*
X73639407Y-48263165D01*
X73601558Y-48299244D01*
X73558403Y-48325014D01*
X73509942Y-48340477D01*
X73456175Y-48345631D01*
X73416482Y-48343121D01*
X73363977Y-48331171D01*
X73315049Y-48309381D01*
X73269697Y-48277750D01*
X73233670Y-48242805D01*
X73206932Y-48208585D01*
X73180829Y-48162011D01*
X73161251Y-48109426D01*
X73149922Y-48061014D01*
X73143124Y-48008428D01*
X73141268Y-47961926D01*
X73267131Y-47961926D01*
X73267189Y-47970635D01*
X73270826Y-48027795D01*
X73280119Y-48078293D01*
X73297666Y-48127847D01*
X73326238Y-48173196D01*
X73333712Y-48181773D01*
X73373659Y-48216358D01*
X73417900Y-48237109D01*
X73466434Y-48244026D01*
X73502352Y-48240651D01*
X73550787Y-48222935D01*
X73592692Y-48190033D01*
X73624459Y-48148039D01*
X73640060Y-48114028D01*
X73652283Y-48064818D01*
X73658412Y-48011344D01*
X73660118Y-47957041D01*
X73660060Y-47948722D01*
X73656424Y-47893950D01*
X73647131Y-47845232D01*
X73629583Y-47796967D01*
X73601011Y-47752121D01*
X73593537Y-47743544D01*
X73553590Y-47708959D01*
X73509350Y-47688208D01*
X73460816Y-47681290D01*
X73408371Y-47689372D01*
X73361525Y-47713615D01*
X73323796Y-47749678D01*
X73316934Y-47758522D01*
X73291535Y-47805613D01*
X73276483Y-47857496D01*
X73269123Y-47910632D01*
X73267131Y-47961926D01*
X73141268Y-47961926D01*
X73140858Y-47951667D01*
X73143005Y-47903010D01*
X73150325Y-47851690D01*
X73162840Y-47802679D01*
X73173263Y-47773100D01*
X73194884Y-47726961D01*
X73223656Y-47683489D01*
X73238966Y-47665769D01*
X73277263Y-47632736D01*
X73322575Y-47607041D01*
X73349200Y-47596382D01*
X73400446Y-47583532D01*
X73449825Y-47579685D01*
X73472251Y-47580548D01*
X73521624Y-47589274D01*
X73572984Y-47610752D01*
X73613490Y-47639613D01*
X73649860Y-47677871D01*
X73649860Y-47313949D01*
X73773447Y-47313949D01*
X73773447Y-48330000D01*
G37*
G36*
X72959141Y-48330000D02*
G01*
X72959141Y-48189316D01*
X72818213Y-48189316D01*
X72818213Y-48330000D01*
X72959141Y-48330000D01*
G37*
G36*
X72605233Y-48330000D02*
G01*
X72605233Y-47595317D01*
X72494103Y-47595317D01*
X72494103Y-47698387D01*
X72461453Y-47658047D01*
X72423772Y-47626053D01*
X72373451Y-47599276D01*
X72324868Y-47585366D01*
X72271253Y-47579801D01*
X72261828Y-47579685D01*
X72210021Y-47583636D01*
X72161761Y-47595487D01*
X72140683Y-47603621D01*
X72097547Y-47627250D01*
X72061414Y-47661352D01*
X72057885Y-47666147D01*
X72033248Y-47711286D01*
X72019295Y-47757983D01*
X72013959Y-47809256D01*
X72012516Y-47863129D01*
X72012456Y-47878883D01*
X72012456Y-48330000D01*
X72136043Y-48330000D01*
X72136043Y-47882058D01*
X72138069Y-47830332D01*
X72146302Y-47780937D01*
X72150453Y-47768241D01*
X72177243Y-47726930D01*
X72201744Y-47707913D01*
X72247056Y-47689546D01*
X72287962Y-47685198D01*
X72339659Y-47691173D01*
X72386277Y-47709095D01*
X72424249Y-47735757D01*
X72454517Y-47776252D01*
X72472174Y-47827912D01*
X72479629Y-47878056D01*
X72481646Y-47927976D01*
X72481646Y-48330000D01*
X72605233Y-48330000D01*
G37*
G36*
X71545823Y-47580084D02*
G01*
X71599212Y-47586066D01*
X71648634Y-47599227D01*
X71694089Y-47619566D01*
X71735577Y-47647083D01*
X71773098Y-47681779D01*
X71800399Y-47715705D01*
X71827052Y-47761752D01*
X71847041Y-47813621D01*
X71858610Y-47861293D01*
X71865550Y-47913007D01*
X71867864Y-47968764D01*
X71867040Y-48001587D01*
X71862002Y-48053181D01*
X71849912Y-48109962D01*
X71831228Y-48161144D01*
X71805949Y-48206727D01*
X71774075Y-48246713D01*
X71762093Y-48258691D01*
X71723043Y-48289989D01*
X71679340Y-48314333D01*
X71630983Y-48331721D01*
X71577972Y-48342153D01*
X71520307Y-48345631D01*
X71504607Y-48345391D01*
X71452440Y-48340762D01*
X71404596Y-48330244D01*
X71355214Y-48311010D01*
X71311479Y-48284082D01*
X71306415Y-48280186D01*
X71269531Y-48245519D01*
X71239088Y-48204624D01*
X71215088Y-48157500D01*
X71199371Y-48111158D01*
X71327355Y-48095526D01*
X71340602Y-48127485D01*
X71367770Y-48172862D01*
X71403558Y-48208611D01*
X71419078Y-48218813D01*
X71467671Y-48238181D01*
X71519574Y-48244026D01*
X71530875Y-48243783D01*
X71583859Y-48235268D01*
X71630976Y-48214588D01*
X71672226Y-48181744D01*
X71699367Y-48147046D01*
X71721800Y-48099800D01*
X71734539Y-48050505D01*
X71740125Y-48001737D01*
X71195952Y-48001737D01*
X71195464Y-47968032D01*
X71196914Y-47923163D01*
X71199501Y-47900132D01*
X71325889Y-47900132D01*
X71733286Y-47900132D01*
X71731643Y-47881800D01*
X71721276Y-47831027D01*
X71700196Y-47782044D01*
X71669050Y-47740886D01*
X71665391Y-47737219D01*
X71625883Y-47706956D01*
X71576308Y-47687110D01*
X71525680Y-47681290D01*
X71502717Y-47682458D01*
X71455042Y-47693625D01*
X71408550Y-47719900D01*
X71372540Y-47756029D01*
X71348005Y-47798733D01*
X71332937Y-47849827D01*
X71325889Y-47900132D01*
X71199501Y-47900132D01*
X71202805Y-47870717D01*
X71213228Y-47822313D01*
X71231718Y-47769565D01*
X71256734Y-47722639D01*
X71288276Y-47681535D01*
X71324878Y-47646922D01*
X71372355Y-47615591D01*
X71424976Y-47594008D01*
X71474171Y-47583266D01*
X71527145Y-47579685D01*
X71545823Y-47580084D01*
G37*
G36*
X70778053Y-48216671D02*
G01*
X70760223Y-48330000D01*
X70809682Y-48341723D01*
X70853524Y-48345631D01*
X70903297Y-48342084D01*
X70950832Y-48327979D01*
X70958060Y-48324138D01*
X70995879Y-48291718D01*
X71010327Y-48267229D01*
X71021021Y-48217137D01*
X71024513Y-48164720D01*
X71025226Y-48118974D01*
X71025226Y-47693014D01*
X71116085Y-47693014D01*
X71116085Y-47595317D01*
X71025226Y-47595317D01*
X71025226Y-47417997D01*
X70902372Y-47345212D01*
X70902372Y-47595317D01*
X70778053Y-47595317D01*
X70778053Y-47693014D01*
X70902372Y-47693014D01*
X70902372Y-48128988D01*
X70900133Y-48179685D01*
X70896022Y-48198597D01*
X70874773Y-48223265D01*
X70832274Y-48232302D01*
X70784256Y-48219464D01*
X70778053Y-48216671D01*
G37*
X68285714Y-66731009D02*
X68142857Y-66778628D01*
X68142857Y-66778628D02*
X68095238Y-66826247D01*
X68095238Y-66826247D02*
X68047619Y-66921485D01*
X68047619Y-66921485D02*
X68047619Y-67064342D01*
X68047619Y-67064342D02*
X68095238Y-67159580D01*
X68095238Y-67159580D02*
X68142857Y-67207200D01*
X68142857Y-67207200D02*
X68238095Y-67254819D01*
X68238095Y-67254819D02*
X68619047Y-67254819D01*
X68619047Y-67254819D02*
X68619047Y-66254819D01*
X68619047Y-66254819D02*
X68285714Y-66254819D01*
X68285714Y-66254819D02*
X68190476Y-66302438D01*
X68190476Y-66302438D02*
X68142857Y-66350057D01*
X68142857Y-66350057D02*
X68095238Y-66445295D01*
X68095238Y-66445295D02*
X68095238Y-66540533D01*
X68095238Y-66540533D02*
X68142857Y-66635771D01*
X68142857Y-66635771D02*
X68190476Y-66683390D01*
X68190476Y-66683390D02*
X68285714Y-66731009D01*
X68285714Y-66731009D02*
X68619047Y-66731009D01*
X67761904Y-66254819D02*
X67190476Y-66254819D01*
X67476190Y-67254819D02*
X67476190Y-66254819D01*
X66333333Y-67254819D02*
X66904761Y-67254819D01*
X66619047Y-67254819D02*
X66619047Y-66254819D01*
X66619047Y-66254819D02*
X66714285Y-66397676D01*
X66714285Y-66397676D02*
X66809523Y-66492914D01*
X66809523Y-66492914D02*
X66904761Y-66540533D01*
D11*
%TO.C,BT1*%
X59300000Y-53700000D02*
X59300000Y-59300000D01*
X59300000Y-59300000D02*
X64370000Y-59300000D01*
X64370000Y-50150000D02*
X64370000Y-53700000D01*
X64370000Y-53700000D02*
X59300000Y-53700000D01*
X64370000Y-60750000D02*
X64370000Y-59300000D01*
X71250000Y-67130000D02*
X64370000Y-60750000D01*
X78850000Y-67130000D02*
X71250000Y-67130000D01*
X78850000Y-67130000D02*
X85730000Y-60750000D01*
X85730000Y-50220000D02*
X85730000Y-53700000D01*
X85730000Y-53700000D02*
X90800000Y-53700000D01*
X85730000Y-59300000D02*
X90800000Y-59300000D01*
X85730000Y-60750000D02*
X85730000Y-59300000D01*
X90800000Y-53700000D02*
X90800000Y-59300000D01*
X64370000Y-50200000D02*
G75*
G02*
X69733548Y-48007247I3130000J0D01*
G01*
X80219999Y-48169999D02*
G75*
G02*
X69743578Y-48032608I-5169999J5270000D01*
G01*
X80230001Y-48160001D02*
G75*
G02*
X85727059Y-50200000I2369999J-2040000D01*
G01*
%TD*%
M02*
