%TF.GenerationSoftware,KiCad,Pcbnew,8.0.6*%
%TF.CreationDate,2024-11-27T13:53:32-03:00*%
%TF.ProjectId,keychain-thermometer,6b657963-6861-4696-9e2d-746865726d6f,rev?*%
%TF.SameCoordinates,Original*%
%TF.FileFunction,Profile,NP*%
%FSLAX46Y46*%
G04 Gerber Fmt 4.6, Leading zero omitted, Abs format (unit mm)*
G04 Created by KiCad (PCBNEW 8.0.6) date 2024-11-27 13:53:32*
%MOMM*%
%LPD*%
G01*
G04 APERTURE LIST*
%TA.AperFunction,Profile*%
%ADD10C,0.050000*%
%TD*%
G04 APERTURE END LIST*
D10*
X70000000Y-58800000D02*
X70000000Y-59500000D01*
X65700000Y-71600000D02*
X84200000Y-71600000D01*
X86400000Y-69750000D02*
X86400000Y-59700000D01*
X63800000Y-46100000D02*
X66100000Y-44200000D01*
X67700000Y-61300000D02*
X67700000Y-59500000D01*
X70000000Y-59500000D02*
X68300000Y-59500000D01*
X68300000Y-61300000D02*
X69900000Y-61300000D01*
X67700000Y-59500000D02*
X66000000Y-59500000D01*
X86400000Y-53300000D02*
X86400000Y-46300000D01*
X91000000Y-53300000D02*
X86400000Y-53300000D01*
X68300000Y-59500000D02*
X68300000Y-61300000D01*
X65700000Y-71600000D02*
X63800000Y-69300000D01*
X63800000Y-59700000D02*
X63800000Y-69300000D01*
X69900000Y-62000000D02*
X66000000Y-62000000D01*
X69900000Y-61300000D02*
X69900000Y-62000000D01*
X84400000Y-44200000D02*
X86400000Y-46300000D01*
X91000000Y-59700000D02*
X91000000Y-53300000D01*
X86400000Y-59700000D02*
X91000000Y-59700000D01*
X84200000Y-71600000D02*
X86400000Y-69750000D01*
X66000000Y-59500000D02*
X66000000Y-58800000D01*
X59100000Y-53300000D02*
X63800000Y-53300000D01*
X59100000Y-59700000D02*
X59100000Y-53300000D01*
X66000000Y-61300000D02*
X67700000Y-61300000D01*
X63800000Y-53300000D02*
X63800000Y-46100000D01*
X66000000Y-58800000D02*
X70000000Y-58800000D01*
X84400000Y-44200000D02*
X66100000Y-44200000D01*
X71320294Y-46000000D02*
G75*
G02*
X68600000Y-46000000I-1360147J0D01*
G01*
X68600000Y-46000000D02*
G75*
G02*
X71320294Y-46000000I1360147J0D01*
G01*
X59100000Y-59700000D02*
X63800000Y-59700000D01*
X66000000Y-62000000D02*
X66000000Y-61300000D01*
M02*
