%TF.GenerationSoftware,KiCad,Pcbnew,8.0.6*%
%TF.CreationDate,2024-10-18T13:34:34-03:00*%
%TF.ProjectId,keychain-thermometer,6b657963-6861-4696-9e2d-746865726d6f,rev?*%
%TF.SameCoordinates,Original*%
%TF.FileFunction,Legend,Bot*%
%TF.FilePolarity,Positive*%
%FSLAX46Y46*%
G04 Gerber Fmt 4.6, Leading zero omitted, Abs format (unit mm)*
G04 Created by KiCad (PCBNEW 8.0.6) date 2024-10-18 13:34:34*
%MOMM*%
%LPD*%
G01*
G04 APERTURE LIST*
%ADD10C,0.150000*%
%ADD11C,0.120000*%
G04 APERTURE END LIST*
D10*
G36*
X80655591Y-66487500D02*
G01*
X80655591Y-65217437D01*
X79806542Y-65217437D01*
X79806542Y-65363982D01*
X80489200Y-65363982D01*
X80489200Y-65764541D01*
X79898438Y-65764541D01*
X79898438Y-65911086D01*
X80489200Y-65911086D01*
X80489200Y-66487500D01*
X80655591Y-66487500D01*
G37*
G36*
X79617254Y-66487500D02*
G01*
X79617254Y-65569146D01*
X79478035Y-65569146D01*
X79478035Y-65709891D01*
X79445638Y-65655169D01*
X79405929Y-65603554D01*
X79380033Y-65580748D01*
X79323147Y-65554746D01*
X79280504Y-65549607D01*
X79216597Y-65557870D01*
X79156892Y-65580167D01*
X79121746Y-65599677D01*
X79174869Y-65744085D01*
X79231655Y-65719127D01*
X79288442Y-65710807D01*
X79350489Y-65724087D01*
X79379422Y-65741643D01*
X79420733Y-65789108D01*
X79436819Y-65826517D01*
X79452633Y-65890760D01*
X79460717Y-65953496D01*
X79462770Y-66007562D01*
X79462770Y-66487500D01*
X79617254Y-66487500D01*
G37*
G36*
X79031987Y-65393292D02*
G01*
X79031987Y-65217437D01*
X78877503Y-65217437D01*
X78877503Y-65393292D01*
X79031987Y-65393292D01*
G37*
G36*
X79031987Y-66487500D02*
G01*
X79031987Y-65569146D01*
X78877503Y-65569146D01*
X78877503Y-66487500D01*
X79031987Y-66487500D01*
G37*
G36*
X78307196Y-66345839D02*
G01*
X78284909Y-66487500D01*
X78346733Y-66502154D01*
X78401535Y-66507039D01*
X78463751Y-66502605D01*
X78523171Y-66484974D01*
X78532205Y-66480172D01*
X78579479Y-66439648D01*
X78597540Y-66409036D01*
X78610907Y-66346421D01*
X78615272Y-66280900D01*
X78616163Y-66223717D01*
X78616163Y-65691268D01*
X78729736Y-65691268D01*
X78729736Y-65569146D01*
X78616163Y-65569146D01*
X78616163Y-65347496D01*
X78462595Y-65256516D01*
X78462595Y-65569146D01*
X78307196Y-65569146D01*
X78307196Y-65691268D01*
X78462595Y-65691268D01*
X78462595Y-66236235D01*
X78459797Y-66299607D01*
X78454658Y-66323246D01*
X78428096Y-66354082D01*
X78374973Y-66365378D01*
X78314951Y-66349331D01*
X78307196Y-66345839D01*
G37*
G36*
X78240029Y-66487500D02*
G01*
X78240029Y-66363241D01*
X77659647Y-65690963D01*
X77724876Y-65693917D01*
X77789698Y-65695742D01*
X77833975Y-65696153D01*
X78205835Y-65696153D01*
X78205835Y-65569146D01*
X77460589Y-65569146D01*
X77460589Y-65671423D01*
X77954265Y-66256385D01*
X78049520Y-66363241D01*
X77985895Y-66359216D01*
X77924775Y-66356682D01*
X77860435Y-66355616D01*
X77854736Y-66355608D01*
X77433112Y-66355608D01*
X77433112Y-66487500D01*
X78240029Y-66487500D01*
G37*
G36*
X76933169Y-65550105D02*
G01*
X76999905Y-65557583D01*
X77061683Y-65574034D01*
X77118501Y-65599457D01*
X77170361Y-65633854D01*
X77217262Y-65677224D01*
X77251388Y-65719631D01*
X77284705Y-65777190D01*
X77309692Y-65842027D01*
X77324152Y-65901616D01*
X77332828Y-65966259D01*
X77335720Y-66035956D01*
X77334690Y-66076984D01*
X77328393Y-66141476D01*
X77313280Y-66212452D01*
X77289924Y-66276430D01*
X77258326Y-66333409D01*
X77218483Y-66383391D01*
X77203506Y-66398364D01*
X77154694Y-66437487D01*
X77100065Y-66467916D01*
X77039618Y-66489651D01*
X76973355Y-66502692D01*
X76901273Y-66507039D01*
X76881649Y-66506738D01*
X76816440Y-66500953D01*
X76756635Y-66487805D01*
X76694907Y-66463762D01*
X76640239Y-66430102D01*
X76633909Y-66425233D01*
X76587804Y-66381899D01*
X76549750Y-66330780D01*
X76519749Y-66271875D01*
X76500104Y-66213948D01*
X76660083Y-66194408D01*
X76676642Y-66234356D01*
X76710602Y-66291078D01*
X76755338Y-66335764D01*
X76774737Y-66348517D01*
X76835478Y-66372727D01*
X76900357Y-66380033D01*
X76914483Y-66379729D01*
X76980714Y-66369085D01*
X77039610Y-66343235D01*
X77091172Y-66302180D01*
X77125099Y-66258808D01*
X77153140Y-66199751D01*
X77169063Y-66138132D01*
X77176046Y-66077172D01*
X76495830Y-66077172D01*
X76495219Y-66035040D01*
X76497032Y-65978954D01*
X76500266Y-65950165D01*
X76658251Y-65950165D01*
X77167498Y-65950165D01*
X77165443Y-65927250D01*
X77152485Y-65863783D01*
X77126135Y-65802556D01*
X77087203Y-65751107D01*
X77082628Y-65746524D01*
X77033243Y-65708695D01*
X76971275Y-65683888D01*
X76907990Y-65676613D01*
X76879286Y-65678073D01*
X76819692Y-65692032D01*
X76761577Y-65724876D01*
X76716564Y-65770036D01*
X76685896Y-65823417D01*
X76667061Y-65887284D01*
X76658251Y-65950165D01*
X76500266Y-65950165D01*
X76504396Y-65913396D01*
X76517425Y-65852891D01*
X76540538Y-65786957D01*
X76571808Y-65728299D01*
X76611235Y-65676919D01*
X76656987Y-65633653D01*
X76716334Y-65594489D01*
X76782109Y-65567510D01*
X76843604Y-65554083D01*
X76909822Y-65549607D01*
X76933169Y-65550105D01*
G37*
G36*
X76310816Y-66487500D02*
G01*
X76310816Y-65569146D01*
X76171903Y-65569146D01*
X76171903Y-65697984D01*
X76131091Y-65647559D01*
X76083990Y-65607567D01*
X76021089Y-65574095D01*
X75960359Y-65556707D01*
X75893340Y-65549752D01*
X75881559Y-65549607D01*
X75816800Y-65554545D01*
X75756475Y-65569359D01*
X75730129Y-65579527D01*
X75676208Y-65609062D01*
X75631042Y-65651690D01*
X75626631Y-65657684D01*
X75595834Y-65714107D01*
X75578393Y-65772479D01*
X75571723Y-65836570D01*
X75569919Y-65903911D01*
X75569844Y-65923604D01*
X75569844Y-66487500D01*
X75724328Y-66487500D01*
X75724328Y-65927573D01*
X75726861Y-65862915D01*
X75737151Y-65801172D01*
X75742341Y-65785301D01*
X75775829Y-65733662D01*
X75806454Y-65709891D01*
X75863094Y-65686933D01*
X75914227Y-65681498D01*
X75978848Y-65688966D01*
X76037121Y-65711369D01*
X76084586Y-65744696D01*
X76122421Y-65795316D01*
X76144491Y-65859890D01*
X76153810Y-65922570D01*
X76156332Y-65984970D01*
X76156332Y-66487500D01*
X76310816Y-66487500D01*
G37*
G36*
X75324685Y-66487500D02*
G01*
X75324685Y-65217437D01*
X75157990Y-65217437D01*
X75157990Y-66340954D01*
X74538224Y-66340954D01*
X74538224Y-66487500D01*
X75324685Y-66487500D01*
G37*
G36*
X73993222Y-65549730D02*
G01*
X74056267Y-65553323D01*
X74121049Y-65563150D01*
X74185903Y-65581053D01*
X74222904Y-65595963D01*
X74277022Y-65627505D01*
X74322374Y-65670202D01*
X74346744Y-65705533D01*
X74372776Y-65761583D01*
X74390151Y-65821938D01*
X74239026Y-65842698D01*
X74232348Y-65820373D01*
X74204844Y-65759940D01*
X74162090Y-65713250D01*
X74124076Y-65693930D01*
X74063740Y-65680191D01*
X74001195Y-65676613D01*
X73939985Y-65680743D01*
X73877570Y-65697007D01*
X73825034Y-65728820D01*
X73812457Y-65742191D01*
X73787515Y-65798491D01*
X73781376Y-65861017D01*
X73781987Y-65901317D01*
X73793439Y-65905176D01*
X73854509Y-65921716D01*
X73921890Y-65935283D01*
X73990961Y-65946277D01*
X74057676Y-65955050D01*
X74068981Y-65956466D01*
X74133632Y-65965842D01*
X74195062Y-65978558D01*
X74250415Y-65998496D01*
X74306498Y-66029849D01*
X74350996Y-66069081D01*
X74386182Y-66119609D01*
X74388061Y-66123112D01*
X74410004Y-66182332D01*
X74416713Y-66243257D01*
X74416398Y-66257521D01*
X74405378Y-66324014D01*
X74378617Y-66382457D01*
X74336113Y-66432850D01*
X74291328Y-66465308D01*
X74230591Y-66490738D01*
X74167398Y-66503489D01*
X74104998Y-66507039D01*
X74060233Y-66505131D01*
X73995804Y-66495113D01*
X73934638Y-66476509D01*
X73924654Y-66472523D01*
X73868887Y-66444548D01*
X73816938Y-66410225D01*
X73769164Y-66372095D01*
X73759956Y-66426642D01*
X73738328Y-66487500D01*
X73576823Y-66487500D01*
X73600074Y-66436977D01*
X73616207Y-66377285D01*
X73618497Y-66360446D01*
X73622885Y-66296558D01*
X73624822Y-66233317D01*
X73625738Y-66166971D01*
X73625976Y-66103122D01*
X73625976Y-66080835D01*
X73781987Y-66080835D01*
X73782598Y-66111941D01*
X73789052Y-66176498D01*
X73807021Y-66237151D01*
X73818132Y-66257909D01*
X73858838Y-66308499D01*
X73909298Y-66345533D01*
X73940583Y-66360879D01*
X74003799Y-66379379D01*
X74068056Y-66384918D01*
X74089900Y-66384264D01*
X74151600Y-66373113D01*
X74205137Y-66343091D01*
X74238666Y-66299250D01*
X74251849Y-66238372D01*
X74251097Y-66223184D01*
X74230478Y-66163572D01*
X74220147Y-66149654D01*
X74169417Y-66112587D01*
X74158626Y-66108289D01*
X74098100Y-66092146D01*
X74034473Y-66081140D01*
X73964893Y-66070240D01*
X73903348Y-66058375D01*
X73842851Y-66043635D01*
X73781987Y-66023438D01*
X73781987Y-66080835D01*
X73625976Y-66080835D01*
X73625976Y-65895821D01*
X73626006Y-65883133D01*
X73627437Y-65817474D01*
X73633609Y-65752634D01*
X73649604Y-65700800D01*
X73681847Y-65646693D01*
X73684022Y-65644093D01*
X73732583Y-65604179D01*
X73789009Y-65577390D01*
X73793612Y-65575680D01*
X73855500Y-65559401D01*
X73916453Y-65551805D01*
X73978602Y-65549607D01*
X73993222Y-65549730D01*
G37*
G36*
X73391809Y-66487500D02*
G01*
X73248316Y-66487500D01*
X73248316Y-66372400D01*
X73224259Y-66403956D01*
X73176948Y-66449055D01*
X73123004Y-66481268D01*
X73062428Y-66500596D01*
X72995219Y-66507039D01*
X72945603Y-66503901D01*
X72879972Y-66488964D01*
X72818811Y-66461726D01*
X72762121Y-66422187D01*
X72717088Y-66378506D01*
X72683665Y-66335731D01*
X72651036Y-66277513D01*
X72626564Y-66211782D01*
X72612402Y-66151267D01*
X72603905Y-66085535D01*
X72601584Y-66027407D01*
X72758914Y-66027407D01*
X72758987Y-66038294D01*
X72763532Y-66109744D01*
X72775149Y-66172866D01*
X72797083Y-66234809D01*
X72832798Y-66291495D01*
X72842141Y-66302216D01*
X72892074Y-66345447D01*
X72947375Y-66371386D01*
X73008042Y-66380033D01*
X73052940Y-66375814D01*
X73113484Y-66353669D01*
X73165865Y-66312541D01*
X73205573Y-66260048D01*
X73225075Y-66217535D01*
X73240354Y-66156022D01*
X73248015Y-66089180D01*
X73250148Y-66021301D01*
X73250076Y-66010902D01*
X73245530Y-65942437D01*
X73233914Y-65881540D01*
X73211979Y-65821209D01*
X73176264Y-65765151D01*
X73166922Y-65754430D01*
X73116988Y-65711198D01*
X73061687Y-65685260D01*
X73001020Y-65676613D01*
X72935464Y-65686715D01*
X72876906Y-65717018D01*
X72829745Y-65762098D01*
X72821168Y-65773152D01*
X72789418Y-65832017D01*
X72770604Y-65896870D01*
X72761404Y-65963290D01*
X72758914Y-66027407D01*
X72601584Y-66027407D01*
X72601072Y-66014584D01*
X72603756Y-65953762D01*
X72612906Y-65889613D01*
X72628550Y-65828349D01*
X72641579Y-65791375D01*
X72668606Y-65733701D01*
X72704570Y-65679361D01*
X72723708Y-65657211D01*
X72771579Y-65615921D01*
X72828218Y-65583801D01*
X72861500Y-65570477D01*
X72925558Y-65554415D01*
X72987281Y-65549607D01*
X73015314Y-65550686D01*
X73077030Y-65561593D01*
X73141230Y-65588440D01*
X73191863Y-65624517D01*
X73237325Y-65672339D01*
X73237325Y-65217437D01*
X73391809Y-65217437D01*
X73391809Y-66487500D01*
G37*
G36*
X72373927Y-66487500D02*
G01*
X72373927Y-66311645D01*
X72197766Y-66311645D01*
X72197766Y-66487500D01*
X72373927Y-66487500D01*
G37*
G36*
X71931542Y-66487500D02*
G01*
X71931542Y-65569146D01*
X71792629Y-65569146D01*
X71792629Y-65697984D01*
X71751817Y-65647559D01*
X71704715Y-65607567D01*
X71641814Y-65574095D01*
X71581085Y-65556707D01*
X71514066Y-65549752D01*
X71502285Y-65549607D01*
X71437526Y-65554545D01*
X71377201Y-65569359D01*
X71350854Y-65579527D01*
X71296934Y-65609062D01*
X71251768Y-65651690D01*
X71247356Y-65657684D01*
X71216560Y-65714107D01*
X71199118Y-65772479D01*
X71192448Y-65836570D01*
X71190645Y-65903911D01*
X71190570Y-65923604D01*
X71190570Y-66487500D01*
X71345054Y-66487500D01*
X71345054Y-65927573D01*
X71347587Y-65862915D01*
X71357877Y-65801172D01*
X71363066Y-65785301D01*
X71396554Y-65733662D01*
X71427180Y-65709891D01*
X71483820Y-65686933D01*
X71534952Y-65681498D01*
X71599574Y-65688966D01*
X71657847Y-65711369D01*
X71705312Y-65744696D01*
X71743147Y-65795316D01*
X71765217Y-65859890D01*
X71774536Y-65922570D01*
X71777058Y-65984970D01*
X71777058Y-66487500D01*
X71931542Y-66487500D01*
G37*
G36*
X70607279Y-65550105D02*
G01*
X70674015Y-65557583D01*
X70735793Y-65574034D01*
X70792612Y-65599457D01*
X70844471Y-65633854D01*
X70891372Y-65677224D01*
X70925499Y-65719631D01*
X70958815Y-65777190D01*
X70983802Y-65842027D01*
X70998262Y-65901616D01*
X71006938Y-65966259D01*
X71009830Y-66035956D01*
X71008800Y-66076984D01*
X71002503Y-66141476D01*
X70987390Y-66212452D01*
X70964035Y-66276430D01*
X70932436Y-66333409D01*
X70892594Y-66383391D01*
X70877616Y-66398364D01*
X70828804Y-66437487D01*
X70774175Y-66467916D01*
X70713729Y-66489651D01*
X70647465Y-66502692D01*
X70575383Y-66507039D01*
X70555759Y-66506738D01*
X70490550Y-66500953D01*
X70430746Y-66487805D01*
X70369017Y-66463762D01*
X70314349Y-66430102D01*
X70308019Y-66425233D01*
X70261914Y-66381899D01*
X70223861Y-66330780D01*
X70193860Y-66271875D01*
X70174214Y-66213948D01*
X70334193Y-66194408D01*
X70350752Y-66234356D01*
X70384712Y-66291078D01*
X70429448Y-66335764D01*
X70448847Y-66348517D01*
X70509588Y-66372727D01*
X70574467Y-66380033D01*
X70588594Y-66379729D01*
X70654824Y-66369085D01*
X70713720Y-66343235D01*
X70765282Y-66302180D01*
X70799209Y-66258808D01*
X70827250Y-66199751D01*
X70843173Y-66138132D01*
X70850157Y-66077172D01*
X70169940Y-66077172D01*
X70169330Y-66035040D01*
X70171142Y-65978954D01*
X70174376Y-65950165D01*
X70332362Y-65950165D01*
X70841608Y-65950165D01*
X70839553Y-65927250D01*
X70826596Y-65863783D01*
X70800245Y-65802556D01*
X70761313Y-65751107D01*
X70756739Y-65746524D01*
X70707353Y-65708695D01*
X70645385Y-65683888D01*
X70582100Y-65676613D01*
X70553397Y-65678073D01*
X70493803Y-65692032D01*
X70435688Y-65724876D01*
X70390675Y-65770036D01*
X70360006Y-65823417D01*
X70341171Y-65887284D01*
X70332362Y-65950165D01*
X70174376Y-65950165D01*
X70178507Y-65913396D01*
X70191536Y-65852891D01*
X70214648Y-65786957D01*
X70245918Y-65728299D01*
X70285345Y-65676919D01*
X70331098Y-65633653D01*
X70390444Y-65594489D01*
X70456220Y-65567510D01*
X70517714Y-65554083D01*
X70583932Y-65549607D01*
X70607279Y-65550105D01*
G37*
G36*
X69647566Y-66345839D02*
G01*
X69625279Y-66487500D01*
X69687103Y-66502154D01*
X69741905Y-66507039D01*
X69804121Y-66502605D01*
X69863541Y-66484974D01*
X69872575Y-66480172D01*
X69919849Y-66439648D01*
X69937909Y-66409036D01*
X69951277Y-66346421D01*
X69955642Y-66280900D01*
X69956533Y-66223717D01*
X69956533Y-65691268D01*
X70070106Y-65691268D01*
X70070106Y-65569146D01*
X69956533Y-65569146D01*
X69956533Y-65347496D01*
X69802965Y-65256516D01*
X69802965Y-65569146D01*
X69647566Y-65569146D01*
X69647566Y-65691268D01*
X69802965Y-65691268D01*
X69802965Y-66236235D01*
X69800167Y-66299607D01*
X69795027Y-66323246D01*
X69768466Y-66354082D01*
X69715343Y-66365378D01*
X69655321Y-66349331D01*
X69647566Y-66345839D01*
G37*
X83839428Y-54787700D02*
X82696571Y-54787700D01*
X83267999Y-55359128D02*
X83267999Y-54216271D01*
D11*
%TO.C,BT1*%
X84300000Y-52650000D02*
X85450000Y-52650000D01*
X84300000Y-53150000D02*
X84300000Y-52650000D01*
X84300000Y-56450000D02*
X84300000Y-56950000D01*
X84300000Y-56950000D02*
X85450000Y-56950000D01*
X85450000Y-53150000D02*
X85450000Y-52650000D01*
X85450000Y-56450000D02*
X85450000Y-56950000D01*
X64750000Y-53450000D02*
G75*
G02*
X84710000Y-52650000I10050242J-1352544D01*
G01*
X84710000Y-56950000D02*
G75*
G02*
X64750000Y-56150000I-9909758J2152544D01*
G01*
%TD*%
M02*
